<?xml version="1.0" standalone="no"?>
<!DOCTYPE svg PUBLIC "-//W3C//DTD SVG 20010904//EN"
 "http://www.w3.org/TR/2001/REC-SVG-20010904/DTD/svg10.dtd">
<svg version="1.0" xmlns="http://www.w3.org/2000/svg"
 width="300.000000pt" height="260.000000pt" viewBox="0 0 300.000000 260.000000"
 preserveAspectRatio="xMidYMid meet">
<metadata>
Created by potrace 1.10, written by Peter Selinger 2001-2011
</metadata>
<g transform="translate(0.000000,260.000000) scale(0.100000,-0.100000)"
fill="#000000" stroke="none">
<path d="M1145 2520 c-7 -76 -1 -246 11 -352 6 -52 24 -66 25 -20 0 15 4 36 8
46 13 33 19 -1 26 -155 14 -317 21 -385 40 -383 6 1 13 18 16 38 7 43 17 56
29 37 6 -10 12 -2 21 28 l12 41 21 -19 c12 -11 23 -32 24 -47 3 -42 38 -82 78
-90 66 -12 120 28 129 97 2 18 11 37 20 41 35 20 7 53 -68 77 -31 11 -36 15
-26 27 16 20 80 17 140 -6 29 -10 56 -17 61 -14 16 10 8 33 -19 54 -46 36 -92
50 -161 50 l-65 0 8 38 c4 20 10 76 13 124 4 48 12 92 19 99 13 13 42 6 47
-13 20 -73 33 -105 46 -118 8 -9 28 -42 45 -75 16 -33 44 -74 61 -91 30 -30
31 -34 23 -85 -14 -86 -25 -132 -37 -156 -7 -12 -12 -31 -12 -42 0 -12 -8 -29
-17 -39 -10 -10 -23 -32 -30 -50 -11 -31 -10 -34 13 -42 28 -11 29 -18 8 -48
-8 -12 -17 -32 -18 -45 -5 -35 -23 -74 -38 -80 -7 -3 -8 -6 -2 -6 10 -1 -9
-46 -51 -119 -7 -13 -27 -32 -44 -43 -25 -15 -152 -48 -286 -73 -16 -3 -122
-6 -235 -7 -197 -1 -209 0 -320 29 -116 31 -204 64 -215 82 -5 8 -44 381 -45
428 0 6 -6 12 -14 12 -28 0 -29 449 -1 525 6 15 5 17 -3 10 -21 -19 -31 -107
-38 -320 -7 -191 -9 -207 -21 -177 -11 28 -16 32 -28 22 -17 -14 -21 -80 -5
-80 15 0 12 -25 -8 -60 -16 -30 -16 -31 3 -45 11 -8 25 -18 31 -24 6 -5 25
-16 42 -25 33 -17 37 -28 47 -141 4 -38 13 -85 21 -104 8 -18 14 -45 14 -60 0
-42 32 -92 74 -115 53 -30 55 -43 7 -51 -48 -8 -46 -6 -66 -81 -8 -32 -18 -61
-23 -66 -4 -4 -27 -10 -52 -13 -84 -10 -142 -37 -197 -91 -29 -28 -55 -49 -58
-46 -3 3 -5 -2 -5 -12 0 -20 -37 -80 -74 -119 -42 -45 -46 -60 -46 -174 l0
-109 82 -81 c103 -101 139 -132 208 -177 l55 -36 263 0 c248 0 264 1 257 18
-53 134 -145 558 -145 666 0 37 18 32 24 -6 3 -18 15 -91 26 -163 25 -155 60
-315 95 -431 l26 -84 93 0 94 0 -33 63 c-73 137 -221 646 -194 663 11 6 8 15
53 -172 45 -190 105 -373 156 -475 l40 -79 138 0 139 0 55 118 c78 163 140
323 189 487 23 77 43 142 45 144 3 3 9 0 16 -7 19 -19 -150 -493 -232 -649
l-48 -93 429 0 430 0 57 42 c94 70 192 159 208 190 8 16 12 37 9 48 -14 43
-14 64 0 91 27 52 12 120 -47 214 -120 188 -135 204 -243 241 -26 8 -74 18
-108 22 -61 7 -61 7 -72 45 -9 31 -19 42 -54 58 -24 10 -73 24 -109 30 -37 5
-68 12 -70 13 -4 5 84 56 95 56 31 0 133 170 133 220 0 28 29 70 49 70 5 0 11
21 14 48 2 26 10 65 16 87 6 22 11 73 11 113 0 40 5 82 12 95 6 12 14 29 18
37 4 8 16 16 28 18 29 5 32 27 34 277 1 231 -8 301 -52 380 -42 75 -84 143
-106 173 l-25 32 -453 0 -454 0 -7 -80z m295 -515 c-5 -33 -17 -65 -25 -71 -8
-6 -15 -26 -15 -45 0 -27 -6 -37 -30 -51 -26 -15 -30 -15 -30 -2 0 9 11 34 24
57 13 23 27 60 31 82 10 59 34 110 45 99 6 -6 6 -31 0 -69z m-405 -1075 c88
-5 216 -9 285 -10 69 0 141 -3 160 -6 l36 -6 1 -56 c1 -34 -4 -64 -12 -75 -15
-21 -122 -47 -160 -39 -15 2 -44 -8 -78 -27 -30 -17 -60 -31 -67 -31 -6 0 -30
13 -53 29 -39 28 -50 30 -170 36 -245 13 -241 12 -248 32 -10 24 -11 158 -1
167 4 5 39 5 77 2 39 -4 142 -11 230 -16z m495 -194 c0 -20 -71 -199 -106
-267 -72 -140 -137 -200 -199 -185 -72 18 -146 130 -216 327 -44 125 -43 119
-26 119 6 0 25 -41 40 -93 53 -169 131 -304 191 -327 80 -30 177 93 260 330
15 41 29 81 31 88 4 11 25 18 25 8z m-1387 -67 c-21 -36 -43 -57 -43 -41 0 11
48 72 56 72 3 0 -3 -14 -13 -31z m2319 -296 c17 -35 28 -68 26 -75 -5 -13 -98
156 -98 176 1 20 42 -38 72 -101z m-1162 -113 l25 -8 -22 -7 c-20 -7 -23 -14
-23 -65 0 -40 -5 -64 -16 -74 -15 -16 -69 -21 -98 -10 -22 8 -22 74 -1 74 9 0
15 -9 15 -24 0 -25 20 -36 53 -28 14 4 17 15 17 63 0 56 -1 59 -25 59 -24 0
-32 10 -18 23 8 9 61 7 93 -3z"/>
<path d="M942 2447 c-6 -7 -17 -38 -23 -68 -7 -37 -24 -71 -53 -109 -24 -30
-46 -64 -50 -75 -8 -22 -6 -21 48 48 28 35 44 47 57 44 16 -4 19 1 19 28 0 19
5 57 11 85 12 55 9 69 -9 47z"/>
<path d="M607 2412 c-32 -49 -73 -155 -81 -207 -23 -161 -28 -217 -19 -226 10
-10 16 29 28 171 4 48 38 165 59 205 27 52 46 95 42 95 -2 0 -15 -17 -29 -38z"/>
<path d="M460 2411 c-5 -11 -15 -32 -21 -48 -15 -41 6 -15 25 30 16 39 14 50
-4 18z"/>
<path d="M720 2153 c-12 -38 -26 -90 -30 -118 -8 -47 -16 -85 -40 -208 -6 -27
-10 -88 -9 -135 l1 -87 14 113 c7 62 23 143 34 179 11 36 20 73 20 83 0 10 7
23 15 30 14 11 34 50 72 135 12 28 12 29 -3 10 -9 -11 -25 -40 -35 -64 -28
-63 -34 -44 -11 36 10 37 17 74 15 81 -10 26 -23 9 -43 -55z"/>
<path d="M208 2023 c-13 -78 -11 -90 17 -79 11 4 15 24 15 81 0 41 -4 75 -9
75 -5 0 -15 -35 -23 -77z"/>
<path d="M845 1960 c-24 -10 -91 -78 -83 -85 3 -3 21 2 41 10 45 19 134 19
167 0 l25 -13 -28 -11 c-16 -6 -34 -11 -40 -11 -7 0 -20 -7 -29 -14 -15 -11
-16 -21 -8 -68 13 -85 43 -118 106 -118 33 0 84 51 84 83 0 14 9 35 20 48 18
21 22 22 32 9 7 -8 25 -23 40 -33 l28 -17 -14 32 c-8 18 -17 41 -20 51 -3 9
-15 17 -26 17 -15 0 -27 14 -45 55 -13 30 -29 55 -35 55 -11 0 -9 -24 10 -114
9 -39 4 -66 -10 -66 -10 0 -39 74 -49 122 -12 60 -100 96 -166 68z m255 -110
c0 -5 -4 -10 -10 -10 -5 0 -10 5 -10 10 0 6 5 10 10 10 6 0 10 -4 10 -10z"/>
<path d="M422 1708 c-6 -6 -12 -15 -12 -19 0 -11 50 5 50 16 1 15 -24 17 -38
3z"/>
<path d="M535 1661 c-8 -15 18 -91 32 -91 21 0 23 17 8 53 -16 39 -30 53 -40
38z"/>
<path d="M1080 1343 c-90 -13 -90 -13 -90 -37 l0 -23 242 -7 c211 -6 243 -5
257 9 20 19 5 46 -30 56 -25 7 -336 9 -379 2z"/>
<path d="M1165 1240 c-3 -5 0 -13 8 -16 23 -9 142 0 142 11 0 14 -142 19 -150
5z"/>
</g>
</svg>
