<?xml version="1.0" standalone="no"?>
<!DOCTYPE svg PUBLIC "-//W3C//DTD SVG 20010904//EN"
 "http://www.w3.org/TR/2001/REC-SVG-20010904/DTD/svg10.dtd">
<svg version="1.0" xmlns="http://www.w3.org/2000/svg"
 width="1533.000000pt" height="1566.000000pt" viewBox="0 0 1533.000000 1566.000000"
 preserveAspectRatio="xMidYMid meet">
<metadata>
Created by potrace 1.10, written by Jesse Roper 2023
</metadata>
<g transform="translate(0.000000,1566.000000) scale(0.100000,-0.100000)"
fill="#000000" stroke="none">
<path d="M6304 15403 c-11 -328 -7 -1223 7 -1413 5 -80 14 -217 19 -305 19
-334 37 -458 72 -514 32 -52 59 -12 82 124 30 178 48 243 72 266 l22 21 17
-26 c9 -14 19 -45 22 -68 2 -24 11 -92 19 -151 8 -59 14 -145 14 -190 0 -45 7
-136 15 -202 8 -66 15 -169 15 -230 0 -60 7 -191 15 -290 8 -99 15 -272 15
-385 0 -113 5 -234 10 -270 5 -36 12 -157 15 -270 3 -113 9 -227 14 -255 5
-27 12 -93 15 -145 14 -217 55 -426 96 -480 12 -16 23 -20 37 -16 26 8 40 44
48 121 11 95 60 245 95 288 38 45 62 47 90 7 27 -37 47 -38 61 -2 37 90 52
130 59 157 5 17 13 44 18 60 6 17 18 56 28 89 19 61 32 74 59 58 34 -18 118
-108 138 -147 23 -43 56 -164 57 -206 0 -14 7 -34 15 -45 8 -10 15 -27 15 -37
0 -10 21 -61 47 -113 53 -108 130 -199 194 -230 98 -47 146 -56 289 -51 146 4
190 13 290 60 63 29 200 147 200 172 0 6 5 16 12 23 36 36 76 220 78 352 0 71
23 109 86 140 60 31 104 68 104 90 0 27 -44 78 -111 128 -84 63 -158 112 -169
112 -4 0 -21 7 -37 15 -15 8 -71 31 -123 51 -192 72 -213 87 -186 128 46 71
211 106 406 87 124 -13 135 -15 406 -91 124 -34 200 -50 240 -50 99 0 126 38
85 118 -53 103 -151 178 -396 307 -53 27 -140 61 -192 75 -44 11 -260 26 -546
37 -121 4 -170 10 -174 19 -10 27 29 355 53 438 8 26 14 73 14 103 0 30 6 81
14 112 9 34 16 143 20 281 7 266 27 433 54 469 25 34 68 45 135 37 96 -12 152
-79 177 -211 12 -67 78 -282 98 -321 5 -10 31 -63 58 -117 27 -54 65 -115 85
-135 44 -45 138 -195 228 -367 67 -128 117 -210 211 -350 66 -99 84 -122 149
-194 118 -128 124 -141 123 -246 -1 -93 -33 -283 -57 -338 -7 -18 -19 -70 -25
-117 -6 -47 -16 -90 -21 -96 -20 -25 -49 -143 -49 -204 0 -71 -19 -137 -63
-214 -15 -27 -27 -54 -27 -60 0 -6 -6 -20 -13 -31 -8 -11 -19 -54 -26 -95 -28
-167 -71 -273 -141 -348 -59 -63 -86 -109 -106 -177 -9 -33 -29 -76 -45 -96
-44 -57 -47 -84 -10 -118 32 -30 107 -71 130 -71 6 0 26 -10 42 -22 30 -23 31
-24 24 -88 -4 -36 -13 -75 -21 -87 -8 -12 -14 -28 -14 -34 0 -7 -13 -33 -28
-58 -31 -52 -55 -107 -71 -166 -42 -155 -139 -418 -171 -465 -35 -50 -69 -136
-80 -202 -7 -37 -18 -72 -26 -79 -7 -6 -16 -26 -20 -45 -3 -19 -15 -41 -26
-48 -11 -8 -32 -40 -47 -72 -16 -33 -66 -108 -111 -168 -80 -105 -130 -188
-142 -232 -11 -44 -160 -125 -308 -168 -114 -33 -166 -49 -203 -62 -20 -8 -49
-14 -63 -14 -15 0 -47 -7 -73 -15 -97 -30 -154 -45 -174 -45 -11 0 -34 -4 -51
-9 -17 -6 -60 -17 -96 -25 -36 -8 -103 -24 -150 -35 -47 -10 -130 -27 -185
-36 -55 -9 -120 -21 -145 -27 -25 -6 -63 -13 -85 -15 -22 -2 -76 -10 -120 -18
-233 -41 -757 -65 -1612 -72 -346 -3 -507 -1 -570 8 -48 6 -131 15 -183 18
-52 4 -105 12 -117 19 -12 7 -39 12 -60 12 -21 1 -49 7 -63 15 -14 8 -40 14
-59 15 -19 0 -57 7 -85 15 -64 18 -179 45 -231 55 -22 4 -67 15 -100 24 -33
10 -103 28 -155 41 -52 14 -106 28 -120 34 -14 5 -54 16 -90 26 -36 9 -81 23
-100 30 -19 7 -80 27 -135 44 -270 86 -457 188 -512 279 -58 99 -105 397 -147
937 -9 110 -20 250 -26 310 -5 61 -12 148 -15 195 -3 46 -10 103 -15 125 -9
39 -23 177 -39 396 -4 58 -11 111 -15 117 -4 6 -11 44 -16 84 -23 171 -44 220
-99 231 -20 4 -34 17 -47 44 -16 34 -19 80 -26 438 -5 220 -7 742 -5 1160 4
705 6 769 25 882 11 67 23 126 26 132 6 9 11 37 33 184 4 30 2 37 -11 37 -9 0
-16 -8 -16 -19 0 -11 -4 -22 -9 -25 -18 -12 -68 -203 -81 -312 -4 -40 -13 -81
-19 -92 -6 -12 -11 -54 -11 -94 0 -40 -5 -89 -11 -108 -6 -19 -15 -107 -21
-195 -5 -88 -11 -176 -13 -195 -8 -92 -25 -723 -30 -1130 -6 -501 -12 -616
-35 -630 -22 -14 -35 3 -54 72 -43 150 -64 188 -106 188 -45 0 -97 -94 -119
-216 -21 -113 -11 -173 40 -231 66 -77 57 -179 -29 -325 -100 -172 -93 -208
60 -292 37 -20 91 -58 120 -84 54 -48 101 -83 128 -95 8 -4 29 -16 45 -26 17
-11 67 -38 112 -61 79 -40 82 -42 102 -96 17 -43 21 -79 22 -172 0 -64 5 -139
10 -167 5 -27 14 -93 18 -145 5 -52 14 -108 20 -123 6 -16 11 -47 11 -70 0
-23 5 -58 11 -77 6 -19 14 -60 19 -90 5 -30 14 -75 20 -100 7 -25 19 -72 27
-105 8 -33 23 -89 34 -125 12 -36 36 -114 55 -175 18 -60 34 -132 34 -158 0
-66 43 -235 79 -310 87 -182 241 -327 397 -372 44 -13 68 -27 96 -57 45 -49
65 -94 51 -117 -17 -27 -85 -53 -190 -72 -149 -27 -198 -43 -221 -69 -18 -21
-38 -70 -79 -190 -20 -57 -45 -125 -56 -150 -20 -47 -46 -173 -47 -226 0 -64
-46 -130 -121 -176 -47 -29 -131 -48 -214 -48 -45 0 -104 -7 -131 -15 -27 -8
-60 -15 -74 -15 -13 0 -42 -6 -65 -14 -22 -7 -65 -21 -95 -31 -30 -10 -59 -21
-65 -25 -5 -4 -37 -15 -70 -25 -33 -9 -80 -23 -105 -31 -25 -7 -62 -16 -82
-19 -60 -9 -229 -137 -368 -280 -185 -188 -262 -260 -328 -306 -72 -48 -87
-73 -52 -84 29 -9 22 -36 -33 -120 -103 -158 -193 -276 -278 -362 -61 -62 -93
-103 -100 -127 -5 -20 -24 -48 -41 -63 -98 -88 -124 -120 -146 -180 -51 -141
-54 -172 -59 -754 l-5 -546 229 -230 c203 -204 398 -390 563 -538 30 -27 82
-74 115 -105 34 -30 103 -91 154 -135 52 -44 121 -103 153 -132 33 -29 83 -68
111 -88 29 -19 79 -55 112 -79 l60 -45 1563 0 c1363 -1 1563 1 1568 14 3 8 -2
38 -11 67 -9 29 -23 78 -32 108 -9 30 -22 73 -28 95 -11 37 -22 74 -61 208 -8
26 -20 68 -28 95 -21 72 -68 255 -91 357 -16 71 -31 126 -59 226 -9 31 -16 63
-16 71 0 9 -6 38 -14 64 -8 27 -22 85 -31 129 -10 44 -23 100 -30 125 -15 53
-37 160 -60 285 -24 130 -45 235 -55 275 -5 19 -16 80 -25 135 -9 55 -23 132
-30 170 -7 39 -18 104 -24 145 -12 73 -28 170 -56 335 -8 44 -18 112 -24 150
-6 39 -17 115 -26 170 -9 55 -17 152 -18 216 -2 128 6 150 60 164 68 17 92
-61 128 -418 8 -86 20 -168 25 -182 6 -15 10 -45 10 -68 1 -23 7 -71 15 -107
8 -36 14 -83 15 -106 0 -23 4 -54 10 -70 5 -16 14 -64 20 -106 26 -203 31
-231 40 -248 10 -18 21 -85 39 -225 5 -34 13 -70 19 -82 7 -12 12 -39 12 -61
0 -22 7 -59 15 -82 8 -23 15 -58 15 -77 0 -19 5 -44 11 -55 7 -12 15 -47 19
-77 5 -31 13 -74 18 -96 6 -22 16 -67 22 -100 6 -33 18 -89 26 -125 8 -36 32
-148 55 -250 22 -102 44 -198 49 -215 14 -49 31 -117 40 -160 4 -22 13 -53 18
-70 10 -28 20 -61 58 -202 37 -134 73 -258 90 -306 8 -20 14 -48 14 -61 0 -57
-9 -56 490 -56 313 0 461 3 465 11 4 5 0 18 -9 28 -9 10 -16 21 -16 25 0 4
-26 63 -59 129 -32 67 -66 142 -76 167 -10 25 -21 54 -26 65 -12 30 -49 125
-66 170 -8 22 -21 54 -28 70 -7 17 -20 50 -30 75 -10 25 -21 54 -26 65 -5 11
-15 40 -24 65 -8 25 -36 106 -62 180 -25 74 -50 149 -54 165 -10 37 -66 203
-78 230 -5 11 -17 45 -26 75 -10 30 -23 73 -30 95 -7 22 -21 67 -30 100 -10
33 -21 65 -26 70 -4 6 -12 29 -18 50 -16 64 -38 146 -56 205 -33 115 -56 200
-90 335 -57 224 -66 257 -81 305 -8 25 -14 55 -14 66 0 12 -7 38 -15 57 -8 20
-15 49 -15 65 0 15 -4 32 -9 38 -6 5 -14 34 -20 64 -5 30 -17 84 -26 120 -50
201 -89 419 -89 510 -1 84 -1 85 25 88 15 2 32 -4 41 -15 25 -27 53 -123 83
-273 14 -74 32 -156 40 -181 8 -26 15 -60 15 -75 1 -16 7 -40 15 -54 8 -14 15
-41 15 -60 0 -19 7 -46 15 -60 8 -14 14 -37 15 -51 0 -15 7 -43 15 -62 8 -20
15 -50 15 -66 0 -16 4 -32 9 -35 5 -4 12 -25 16 -49 4 -23 11 -55 16 -72 17
-58 79 -316 79 -333 1 -9 9 -35 20 -57 11 -22 19 -48 20 -57 0 -9 4 -27 9 -40
9 -25 30 -96 56 -193 9 -33 23 -75 31 -93 8 -18 14 -43 14 -55 0 -12 7 -31 15
-41 8 -11 15 -29 15 -40 0 -11 6 -38 14 -61 23 -68 94 -294 125 -400 16 -55
44 -138 61 -185 18 -47 34 -96 37 -110 3 -14 12 -34 19 -45 8 -11 14 -27 14
-36 0 -10 6 -30 14 -46 26 -52 45 -98 91 -218 25 -66 52 -133 59 -150 8 -16
21 -46 29 -65 26 -63 45 -103 119 -255 l73 -150 870 0 870 0 45 90 c25 50 63
129 84 175 21 47 72 153 111 235 40 83 92 191 114 240 23 50 48 103 56 118 8
16 15 33 15 38 0 6 20 52 44 102 25 51 79 180 121 287 42 107 82 210 90 228
48 108 63 147 82 202 8 25 21 59 28 75 7 17 25 66 40 110 14 44 30 87 34 95 5
9 12 30 15 48 4 17 12 34 17 37 5 4 9 14 9 23 0 9 7 30 15 46 8 15 15 35 15
43 0 8 6 29 14 46 7 18 21 59 31 92 10 33 28 89 41 125 27 77 42 124 78 245
15 50 35 108 45 130 17 36 66 197 92 298 5 21 13 45 18 55 5 9 17 46 26 82 10
36 23 85 31 110 7 25 28 92 45 150 17 58 37 120 45 138 8 18 14 39 14 46 0 25
42 115 57 120 18 7 54 -19 83 -62 20 -28 22 -41 17 -100 -3 -37 -13 -87 -21
-112 -8 -25 -42 -133 -76 -240 -34 -107 -68 -208 -75 -225 -8 -16 -39 -106
-71 -200 -31 -93 -63 -181 -71 -195 -14 -25 -67 -176 -163 -460 -27 -80 -58
-170 -70 -200 -12 -30 -24 -66 -27 -80 -3 -14 -10 -30 -15 -37 -6 -7 -14 -27
-18 -45 -5 -18 -25 -78 -45 -133 -20 -55 -40 -113 -45 -130 -4 -16 -18 -55
-30 -85 -12 -30 -25 -66 -30 -80 -5 -14 -18 -50 -30 -80 -12 -30 -25 -66 -30
-80 -4 -14 -12 -36 -18 -50 -5 -14 -17 -43 -25 -65 -124 -319 -161 -405 -321
-735 -62 -129 -157 -311 -199 -381 -24 -40 -25 -47 -11 -53 8 -3 1107 -6 2441
-6 l2425 0 60 48 c137 108 227 186 368 317 105 97 272 249 313 284 l37 33 0
392 c0 379 -1 393 -21 431 -12 22 -29 49 -39 60 -10 11 -37 57 -61 103 -24 46
-66 124 -93 175 -150 286 -226 460 -226 519 0 74 64 5 188 -202 48 -80 89
-147 92 -150 8 -8 48 -81 123 -228 15 -27 21 -32 28 -21 5 8 9 306 9 684 l0
670 -25 38 c-14 20 -30 37 -35 37 -8 0 -120 163 -120 174 0 13 -95 165 -145
231 -78 105 -365 393 -435 437 -80 50 -274 135 -435 190 -16 5 -52 21 -80 34
-64 31 -144 53 -221 63 -34 5 -67 12 -74 16 -8 5 -52 12 -99 17 -157 15 -325
36 -371 47 -25 6 -61 10 -81 11 -43 0 -53 18 -69 117 -6 36 -15 74 -20 84 -6
10 -10 30 -10 46 -1 74 -75 203 -116 203 -14 0 -66 21 -117 46 -16 8 -34 14
-41 14 -7 0 -68 18 -137 41 -132 43 -249 76 -314 90 -22 5 -74 16 -115 24 -41
9 -109 19 -150 23 -41 4 -84 13 -95 18 -11 6 -37 14 -58 17 -48 7 -67 23 -67
52 0 28 64 73 200 139 52 25 111 56 130 68 19 12 64 37 100 56 163 86 280 171
328 238 30 42 122 192 122 199 0 2 20 38 44 79 49 82 141 269 181 368 14 34
30 72 34 83 9 20 27 69 51 135 7 19 16 58 20 85 4 28 12 63 18 78 7 16 12 51
12 79 0 70 30 125 91 168 112 79 135 97 156 129 14 20 23 49 23 70 0 20 7 97
16 171 14 123 24 169 71 340 8 30 19 87 23 126 4 38 13 88 19 110 6 21 11 75
11 119 1 44 5 100 10 125 5 25 14 133 20 240 13 251 35 397 72 476 15 34 28
69 28 78 0 10 14 51 31 91 33 80 95 149 145 161 15 4 56 1 91 -6 34 -6 69 -10
76 -7 15 6 30 124 48 382 17 247 25 1814 10 1970 -7 66 -17 197 -22 290 -16
264 -24 348 -37 378 -7 16 -12 41 -12 57 0 16 -6 41 -14 57 -29 57 -45 110
-62 198 -18 95 -26 113 -89 210 -45 68 -60 92 -75 120 -6 11 -19 34 -30 50
-11 17 -23 37 -27 45 -14 30 -126 216 -147 245 -12 17 -41 63 -65 103 -68 117
-173 275 -273 413 -32 44 -58 86 -58 94 0 13 -290 15 -2509 15 l-2509 0 -8
-257z m1595 -2532 c10 -10 21 -38 25 -62 7 -46 -15 -270 -34 -354 -54 -234
-70 -278 -131 -349 -86 -101 -100 -150 -75 -259 21 -92 20 -110 -9 -145 -29
-34 -127 -102 -147 -102 -8 0 -43 -19 -79 -43 -36 -24 -71 -41 -78 -39 -16 5
-5 111 17 172 17 48 67 146 85 169 13 15 57 98 82 151 32 69 57 156 66 230 12
100 46 241 89 369 11 33 20 65 20 71 0 6 19 49 41 96 54 110 88 135 128 95z
m-3362 -6116 c31 -8 82 -15 113 -15 30 0 71 -5 90 -11 54 -16 183 -28 430 -39
124 -5 236 -12 250 -16 14 -3 95 -5 180 -5 85 1 205 -3 265 -9 61 -6 223 -13
360 -15 138 -2 329 -9 425 -15 160 -9 754 -27 1195 -37 99 -2 212 -8 250 -14
39 -6 91 -13 117 -16 26 -3 54 -13 62 -22 31 -35 54 -405 35 -565 -21 -177
-104 -243 -374 -301 -44 -9 -95 -21 -113 -26 -49 -15 -284 -38 -397 -40 -176
-1 -226 -14 -395 -98 -96 -48 -166 -88 -320 -186 -47 -30 -97 -54 -112 -55
-28 0 -92 39 -169 102 -25 21 -75 59 -111 85 -36 27 -102 77 -147 111 -103 80
-93 79 -606 92 -661 18 -715 20 -895 31 -96 6 -232 10 -301 9 -69 -1 -156 4
-193 11 -121 21 -153 72 -176 281 -14 131 -13 500 2 626 11 95 14 105 41 128
28 24 31 24 232 24 149 0 220 -4 262 -15z m3823 -1155 c12 -23 10 -35 -42
-205 -22 -71 -44 -146 -49 -165 -6 -19 -14 -44 -19 -55 -5 -11 -24 -67 -43
-125 -20 -58 -40 -116 -45 -130 -5 -14 -17 -43 -25 -65 -54 -141 -123 -304
-137 -325 -10 -14 -35 -65 -56 -115 -21 -49 -51 -111 -66 -136 -15 -25 -28
-50 -28 -54 0 -8 -71 -150 -132 -265 -35 -64 -58 -104 -131 -225 -7 -11 -30
-44 -52 -75 -22 -30 -54 -75 -70 -100 -36 -53 -223 -240 -281 -280 -70 -49
-187 -107 -240 -119 -100 -24 -256 -11 -329 27 -124 63 -310 227 -387 341 -17
25 -47 65 -65 89 -96 119 -258 420 -363 672 -29 69 -58 140 -66 158 -30 70
-42 99 -59 142 -9 25 -21 53 -26 63 -10 18 -93 258 -109 312 -5 17 -25 75 -45
130 -20 55 -40 114 -45 130 -5 17 -17 55 -26 85 -58 192 -65 254 -31 274 15 9
23 6 46 -21 15 -18 37 -59 50 -90 12 -32 29 -70 37 -85 8 -14 14 -33 14 -42 0
-8 6 -30 14 -48 8 -18 21 -49 30 -70 9 -20 16 -41 16 -47 0 -6 6 -25 14 -43 8
-18 35 -100 61 -183 26 -82 53 -163 61 -178 8 -16 14 -35 14 -42 0 -7 7 -27
15 -44 8 -17 22 -45 30 -62 8 -17 15 -37 15 -44 0 -7 6 -26 14 -42 8 -15 19
-39 25 -53 72 -175 95 -231 107 -264 29 -77 160 -332 188 -366 7 -8 28 -41 46
-74 76 -135 231 -316 342 -401 71 -54 124 -78 215 -98 67 -15 77 -15 155 2 46
10 112 33 148 51 72 36 188 143 276 252 53 66 204 286 235 343 101 184 239
459 269 535 11 28 34 77 50 109 26 50 70 153 152 356 11 28 23 64 28 80 5 17
18 55 30 85 12 30 25 66 30 80 5 14 18 50 30 80 12 30 26 69 30 85 55 187 68
220 97 249 31 31 68 34 83 6z m-7450 -222 c0 -30 -36 -91 -121 -208 -82 -113
-156 -197 -165 -187 -21 21 124 269 213 365 53 56 73 65 73 30z m6111 -2337
c87 -14 135 -29 160 -50 20 -16 22 -23 14 -47 -8 -21 -23 -33 -65 -49 -38 -15
-59 -29 -68 -48 -8 -16 -19 -116 -27 -250 -17 -253 -30 -328 -69 -387 -53 -80
-165 -130 -290 -130 -83 1 -136 11 -229 46 -96 37 -100 45 -95 206 4 141 15
183 51 194 31 10 61 -32 77 -106 16 -75 61 -146 110 -172 53 -29 146 -21 195
16 49 38 71 94 85 216 15 123 0 306 -29 355 -15 27 -24 31 -80 38 -70 9 -112
26 -153 65 -48 44 -34 78 38 98 57 15 293 18 375 5z"/>
<path d="M5196 14886 c-19 -19 -37 -49 -41 -65 -4 -17 -11 -33 -16 -36 -5 -4
-9 -16 -9 -28 0 -13 -6 -31 -13 -42 -13 -19 -24 -61 -67 -250 -11 -49 -26
-110 -34 -135 -20 -65 -100 -223 -129 -256 -40 -46 -257 -334 -292 -389 -18
-27 -55 -93 -82 -145 -27 -52 -63 -115 -79 -140 -15 -25 -37 -63 -47 -85 -10
-22 -24 -46 -31 -55 -21 -23 -197 -363 -229 -442 -9 -21 -28 -49 -42 -64 -33
-33 -55 -18 -55 35 1 53 46 236 94 376 7 22 21 67 31 100 9 33 23 81 31 106 8
25 17 84 21 131 6 84 5 86 -21 103 -46 30 -73 14 -112 -69 -19 -41 -34 -82
-34 -92 -1 -11 -7 -30 -15 -44 -8 -14 -14 -36 -15 -50 0 -15 -4 -30 -9 -35 -6
-6 -14 -28 -20 -50 -15 -60 -38 -142 -61 -220 -11 -38 -25 -90 -31 -115 -6
-25 -15 -59 -20 -76 -5 -17 -9 -44 -9 -60 0 -16 -7 -42 -15 -58 -8 -15 -15
-47 -15 -70 -1 -22 -7 -52 -15 -66 -8 -14 -14 -44 -15 -68 0 -24 -5 -53 -12
-65 -7 -12 -16 -47 -20 -77 -12 -89 -29 -183 -39 -215 -8 -30 -21 -98 -39
-220 -5 -33 -16 -100 -25 -150 -8 -49 -20 -126 -25 -170 -5 -44 -14 -98 -19
-120 -6 -22 -11 -71 -11 -110 0 -38 -5 -88 -11 -110 -10 -39 -23 -283 -35
-646 -7 -180 1 -259 26 -259 16 0 30 100 31 213 0 62 5 148 10 192 5 44 13
125 18 180 10 116 26 231 47 330 8 39 14 84 14 101 0 17 7 51 15 74 8 23 15
55 15 70 0 16 6 55 14 87 7 32 21 94 31 138 41 193 73 319 127 500 28 94 96
237 150 316 24 35 52 84 62 109 10 25 29 65 42 90 65 125 87 166 99 180 21 25
105 181 105 197 0 38 117 233 285 473 37 52 69 103 73 112 4 9 32 47 62 84
133 164 159 183 247 185 109 2 127 27 143 201 17 183 59 449 78 484 11 23 24
178 16 199 -10 25 -41 17 -78 -19z"/>
<path d="M3468 14833 c-71 -84 -171 -251 -248 -413 -23 -47 -57 -116 -76 -155
-19 -38 -34 -75 -34 -81 0 -6 -18 -50 -40 -98 -54 -117 -83 -220 -109 -386 -5
-30 -14 -68 -20 -83 -6 -16 -11 -48 -11 -71 0 -24 -7 -63 -15 -86 -8 -23 -15
-66 -15 -94 0 -28 -7 -73 -15 -100 -8 -27 -15 -71 -15 -97 0 -26 -6 -76 -14
-111 -7 -35 -19 -126 -25 -203 -7 -77 -17 -178 -22 -225 -14 -112 -3 -233 21
-255 25 -23 40 -11 40 29 0 19 7 50 15 69 8 20 15 63 15 97 0 33 4 79 10 102
5 24 16 126 25 228 8 102 20 217 25 255 5 39 14 111 20 160 6 50 18 119 26
155 7 36 17 86 20 113 4 26 11 50 15 53 5 3 9 19 9 35 0 16 7 46 15 66 8 19
15 46 15 59 0 13 6 38 14 56 8 18 23 62 34 98 41 132 91 268 122 336 18 38 48
102 66 142 19 40 34 76 34 81 0 5 6 14 14 20 7 6 35 62 62 124 26 61 53 119
61 128 14 17 18 69 5 69 -5 0 -16 -8 -24 -17z"/>
<path d="M2634 14792 c-51 -75 -153 -293 -160 -339 -5 -36 -4 -43 10 -43 9 0
19 8 23 18 3 9 38 85 77 167 40 83 77 164 83 180 6 17 14 38 18 48 15 37 -21
16 -51 -31z"/>
<path d="M1276 12940 c-17 -42 -41 -157 -57 -274 -5 -38 -14 -77 -19 -87 -6
-10 -10 -35 -10 -57 0 -21 -7 -62 -15 -90 -11 -36 -15 -84 -13 -158 l3 -107
38 -30 c32 -26 41 -29 64 -21 49 17 69 62 77 169 3 53 11 118 17 144 13 63 7
365 -10 469 -13 74 -16 82 -36 82 -17 0 -27 -10 -39 -40z"/>
<path d="M4790 12271 c-8 -6 -37 -13 -64 -17 -98 -13 -243 -116 -380 -269 -89
-101 -131 -160 -121 -174 10 -17 59 -13 128 9 180 57 270 78 417 95 69 8 148
15 175 15 65 0 307 -35 331 -48 11 -5 37 -18 59 -28 52 -24 85 -53 85 -74 0
-35 -29 -49 -220 -109 -134 -42 -233 -87 -310 -142 -62 -43 -64 -60 -19 -145
31 -58 51 -144 68 -294 5 -41 21 -106 35 -145 36 -95 106 -214 136 -234 14 -8
41 -28 60 -43 59 -45 114 -59 256 -65 151 -6 194 4 299 75 132 88 166 151 245
450 30 113 171 299 219 290 8 -2 28 -30 46 -62 34 -63 51 -80 190 -191 48 -38
94 -76 101 -82 33 -32 44 -6 20 49 -8 18 -35 85 -61 148 -115 282 -142 319
-232 320 -48 1 -111 37 -140 79 -12 18 -31 58 -43 89 -11 32 -27 69 -35 84 -8
14 -15 32 -15 40 0 26 -90 192 -122 225 -38 39 -74 44 -87 10 -11 -29 -4 -156
14 -232 38 -164 64 -515 45 -587 -14 -48 -44 -59 -76 -27 -26 27 -134 234
-134 258 0 9 -7 25 -15 35 -8 11 -15 32 -15 46 0 14 -4 30 -9 36 -5 5 -14 34
-21 64 -6 30 -18 83 -25 117 -35 160 -75 233 -173 315 -106 88 -249 128 -461
128 -75 0 -143 -4 -151 -9z"/>
<path d="M2374 10848 c-50 -48 -74 -79 -74 -95 0 -31 24 -30 92 6 30 16 89 37
131 48 89 21 96 34 42 82 -28 24 -45 31 -76 31 -37 0 -48 -7 -115 -72z"/>
<path d="M2987 10617 c-19 -30 -8 -109 31 -207 29 -73 45 -137 60 -230 6 -39
11 -45 33 -48 29 -3 157 62 166 84 2 7 -20 65 -51 129 -31 63 -56 119 -56 124
0 5 -7 14 -15 21 -8 7 -15 18 -15 26 0 18 -46 85 -73 106 -30 24 -62 22 -80
-5z"/>
<path d="M6605 8910 c-236 -4 -468 -13 -515 -19 -46 -6 -136 -11 -200 -11 -73
0 -133 -6 -164 -15 -27 -8 -60 -15 -74 -15 -46 0 -134 -32 -167 -61 -71 -62
-49 -181 35 -195 19 -3 46 -10 60 -15 14 -5 259 -13 545 -19 791 -16 1203 -29
1280 -40 39 -5 192 -9 340 -9 222 0 273 2 289 14 11 8 28 15 38 15 27 0 93 44
117 78 14 21 21 45 21 78 0 108 -79 155 -335 198 -116 19 -680 26 -1270 16z"/>
<path d="M6639 8404 c-131 -15 -211 -40 -228 -72 -33 -64 80 -90 401 -92 130
-1 224 3 236 9 10 5 42 13 70 17 57 7 75 22 70 56 -6 41 -69 65 -217 82 -151
18 -160 18 -332 0z"/>
</g>
</svg>
